<svg xmlns="http://www.w3.org/2000/svg" width="211" height="19" viewBox="0 0 211 19">
    <g fill="none" fill-rule="evenodd">
        <g fill="#2192FF">
            <path d="M.857 18.571C.857 9.104 8.532 1.43 18 1.43S35.143 9.104 35.143 18.57m-2.572 0C32.571 10.524 26.048 4 18 4S3.429 10.524 3.429 18.571"/>
            <path d="M6 18.571c0-6.627 5.373-12 12-12s12 5.373 12 12m-2.571 0a9.429 9.429 0 1 0-18.858 0"/>
            <path d="M18 11.714a6.857 6.857 0 0 1 6.857 6.857h-2.565A4.291 4.291 0 0 0 18 14.286a4.286 4.286 0 0 0-4.286 4.285h-2.571A6.857 6.857 0 0 1 18 11.714z"/>
        </g>
        <text fill="#FFF" font-family="Helvetica-Light, Helvetica" font-size="24" font-weight="300" transform="translate(0 -5)">
            <tspan x="45" y="23">Forecast</tspan> <tspan x="137.952" y="23" font-family="Helvetica-Bold, Helvetica" font-weight="bold">Finder</tspan>
        </text>
    </g>
</svg>
