<svg xmlns="http://www.w3.org/2000/svg" width="38" height="40" viewBox="0 0 38 40">
    <g fill="none" fill-rule="evenodd" transform="translate(-5 -4)">
        <path d="M0 0h48v48H0z"/>
        <circle cx="24" cy="24" r="12" fill="#4A90E2"/>
        <path fill="#4A90E2" d="M24 38.375c.7 0 1.267.567 1.267 1.267v2.466a1.267 1.267 0 0 1-2.534 0v-2.466c0-.7.567-1.267 1.267-1.267zm10.35-2.465l1.45 1.995a1.267 1.267 0 0 1-2.049 1.49l-1.45-1.996a1.267 1.267 0 0 1 2.05-1.49zm-18.932-.28c.566.41.692 1.203.28 1.769l-1.45 1.995a1.267 1.267 0 1 1-2.049-1.489l1.45-1.995a1.267 1.267 0 0 1 1.77-.28zm24.064-8.001l2.345.762a1.267 1.267 0 1 1-.782 2.41l-2.346-.763a1.267 1.267 0 0 1 .783-2.41zm-29.367.813a1.267 1.267 0 0 1-.814 1.596l-2.346.762a1.267 1.267 0 1 1-.782-2.409l2.345-.762a1.267 1.267 0 0 1 1.597.813zm32.526-10.43a1.267 1.267 0 0 1-.814 1.597l-2.345.762a1.267 1.267 0 0 1-.783-2.41l2.346-.761a1.267 1.267 0 0 1 1.596.813zM6.955 17.2l2.346.762a1.267 1.267 0 0 1-.783 2.41l-2.345-.763a1.267 1.267 0 1 1 .782-2.41zm28.566-8.875c.566.411.691 1.204.28 1.77l-1.45 1.995a1.267 1.267 0 1 1-2.05-1.489l1.45-1.995a1.267 1.267 0 0 1 1.77-.28zm-21.272.28l1.45 1.996a1.267 1.267 0 0 1-2.05 1.49l-1.45-1.996a1.267 1.267 0 1 1 2.05-1.49zM24 4.626c.7 0 1.267.567 1.267 1.267v2.466a1.267 1.267 0 0 1-2.534 0V5.892c0-.7.567-1.267 1.267-1.267z"/>
    </g>
</svg>
