<svg xmlns="http://www.w3.org/2000/svg" width="40" height="26" viewBox="0 0 40 26">
    <g fill="none" fill-rule="evenodd">
        <path d="M-4-11h48v48H-4z"/>
        <path fill="#4A90E2" d="M36.402 12.427a6.725 6.725 0 0 1 2.63 2.547c.623 1.075.968 2.353.968 3.77 0 1.417-.345 2.696-.968 3.77a6.726 6.726 0 0 1-2.635 2.55c-1.11.602-2.432.936-3.897.936h-25c-1.465 0-2.786-.334-3.897-.937a6.726 6.726 0 0 1-2.635-2.548C.345 21.44 0 20.16 0 18.745c0-1.418.345-2.696.968-3.771a6.726 6.726 0 0 1 2.635-2.55 7.37 7.37 0 0 1 1.112-.487 7.082 7.082 0 0 1-.079-1.053c0-4.008 3.358-7.256 7.5-7.256 2.153 0 4.094.877 5.462 2.283C19.115 2.437 22.67 0 26.813 0c5.522 0 10 4.331 10 9.674 0 .957-.144 1.88-.411 2.753z"/>
    </g>
</svg>
