<svg xmlns="http://www.w3.org/2000/svg" width="40" height="38" viewBox="0 0 40 38">
    <g fill="none" fill-rule="evenodd" transform="translate(-4 -4)">
        <path d="M0 0h48v48H0z"/>
        <path fill="#4A90E2" d="M40.402 16.427a6.725 6.725 0 0 1 2.63 2.547c.623 1.075.968 2.353.968 3.77 0 1.417-.345 2.696-.968 3.77a6.726 6.726 0 0 1-2.635 2.55c-1.11.602-2.432.936-3.897.936h-25c-1.465 0-2.786-.334-3.897-.937a6.726 6.726 0 0 1-2.635-2.548C4.345 25.44 4 24.16 4 22.745c0-1.418.345-2.696.968-3.771a6.726 6.726 0 0 1 2.635-2.55 7.37 7.37 0 0 1 1.112-.487 7.082 7.082 0 0 1-.079-1.053c0-4.008 3.358-7.256 7.5-7.256 2.153 0 4.094.877 5.462 2.283C23.115 6.437 26.67 4 30.813 4c5.522 0 10 4.331 10 9.674 0 .957-.144 1.88-.411 2.753z"/>
        <circle cx="12" cy="39" r="2" fill="#4A90E2"/>
        <circle cx="24" cy="35" r="2" fill="#4A90E2"/>
        <circle cx="17" cy="34" r="1" fill="#4A90E2"/>
        <circle cx="36" cy="36" r="2" fill="#4A90E2"/>
        <circle cx="29" cy="41" r="1" fill="#4A90E2"/>
    </g>
</svg>
