<svg xmlns="http://www.w3.org/2000/svg" width="38" height="38" viewBox="0 0 38 38">
    <g fill="#4A90E2" fill-rule="evenodd" transform="translate(-5 -5)">
        <path d="M15.056 33A11.955 11.955 0 0 1 12 25c0-6.627 5.373-12 12-12s12 5.373 12 12c0 3.073-1.155 5.877-3.056 8H15.056M39.482 28.629l2.345.762a1.267 1.267 0 1 1-.782 2.41l-2.346-.763a1.267 1.267 0 0 1 .783-2.41zm-29.367.813a1.267 1.267 0 0 1-.814 1.596l-2.346.762a1.267 1.267 0 1 1-.782-2.409l2.345-.762a1.267 1.267 0 0 1 1.597.813zm32.526-10.43a1.267 1.267 0 0 1-.814 1.597l-2.345.762a1.267 1.267 0 0 1-.783-2.41l2.346-.761a1.267 1.267 0 0 1 1.596.813zM6.955 18.2l2.346.762a1.267 1.267 0 0 1-.783 2.41l-2.345-.763a1.267 1.267 0 1 1 .782-2.41zm28.566-8.875c.566.411.691 1.204.28 1.77l-1.45 1.995a1.267 1.267 0 1 1-2.05-1.489l1.45-1.995a1.267 1.267 0 0 1 1.77-.28zm-21.272.28l1.45 1.996a1.267 1.267 0 0 1-2.05 1.49l-1.45-1.996a1.267 1.267 0 1 1 2.05-1.49zM24 5.626c.7 0 1.267.567 1.267 1.267v2.466a1.267 1.267 0 0 1-2.534 0V6.892c0-.7.567-1.267 1.267-1.267z"/>
        <rect width="28" height="2" x="10" y="41" rx="1"/>
        <rect width="28" height="2" x="10" y="36" rx="1"/>
    </g>
</svg>
