<svg xmlns="http://www.w3.org/2000/svg" width="40" height="39" viewBox="0 0 40 39">
    <g fill="none" fill-rule="evenodd" transform="translate(-4 -4)">
        <path d="M0 0h48v48H0z"/>
        <path fill="#4A90E2" d="M30.813 9c5.522 0 10 4.331 10 9.674 0 .957-.144 1.88-.411 2.753a6.725 6.725 0 0 1 2.63 2.547c.623 1.075.968 2.353.968 3.77 0 1.417-.345 2.696-.968 3.77a6.726 6.726 0 0 1-2.635 2.55c-1.11.602-2.432.936-3.897.936h-25c-1.465 0-2.786-.334-3.897-.937a6.726 6.726 0 0 1-2.635-2.548C4.345 30.44 4 29.16 4 27.745c0-1.418.345-2.696.968-3.771a6.726 6.726 0 0 1 2.635-2.55 7.37 7.37 0 0 1 1.112-.487c-.005-.033.287-.107.678-.23a8 8 0 0 0 13.347-7.742C24.557 10.562 27.496 9 30.812 9zM14.66 38.259a1 1 0 0 1 .366 1.366l-1.588 2.75a1 1 0 1 1-1.732-1l1.588-2.75a1 1 0 0 1 1.366-.366zM24.66 38.259a1 1 0 0 1 .366 1.366l-1.588 2.75a1 1 0 1 1-1.732-1l1.588-2.75a1 1 0 0 1 1.366-.366zM34.66 38.259a1 1 0 0 1 .366 1.366l-1.588 2.75a1 1 0 1 1-1.732-1l1.588-2.75a1 1 0 0 1 1.366-.366z"/>
        <circle cx="15" cy="15" r="6" fill="#4A90E2"/>
        <path fill="#4A90E2" d="M8.938 18.5a1 1 0 0 1-.366 1.366l-1.732 1a1 1 0 1 1-1-1.732l1.732-1a1 1 0 0 1 1.366.366zm-3.612-6.221l1.97.347a1 1 0 0 1-.348 1.97l-1.97-.348a1 1 0 0 1 .348-1.97zM22.07 6.574a1 1 0 0 1 .123 1.408l-1.286 1.532a1 1 0 1 1-1.532-1.285l1.286-1.532a1 1 0 0 1 1.409-.123zm-12.733.123l1.286 1.532a1 1 0 1 1-1.532 1.285L7.806 7.982a1 1 0 0 1 1.532-1.285zM15 4a1 1 0 0 1 1 1v2a1 1 0 0 1-2 0V5a1 1 0 0 1 1-1z"/>
    </g>
</svg>
