<svg xmlns="http://www.w3.org/2000/svg" width="40" height="28" viewBox="0 0 40 28">
    <g fill="none" fill-rule="evenodd">
        <path d="M-4-10h48v48H-4z"/>
        <path fill="#4A90E2" d="M5 10.518c.732.27 1.524.418 2.35.418 3.731 0 6.755-3.004 6.755-6.709A6.653 6.653 0 0 0 12.595 0C15.169.948 17 3.407 17 6.291 17 9.996 13.976 13 10.245 13A6.76 6.76 0 0 1 5 10.518z"/>
        <path fill="#4A90E2" d="M26.813 1.5c5.522 0 10 4.331 10 9.674 0 .957-.144 1.88-.411 2.753a6.725 6.725 0 0 1 2.63 2.547c.623 1.075.968 2.353.968 3.77 0 1.417-.345 2.696-.968 3.77a6.726 6.726 0 0 1-2.635 2.55c-1.11.602-2.432.936-3.897.936h-25c-1.465 0-2.786-.334-3.897-.937a6.726 6.726 0 0 1-2.635-2.548C.345 22.94 0 21.66 0 20.245c0-1.418.345-2.696.968-3.771a6.726 6.726 0 0 1 2.635-2.55 7.37 7.37 0 0 1 1.112-.487c-.002-.013.044-.033.125-.06A8.97 8.97 0 0 0 10 15a9 9 0 0 0 8.963-9.818c1.83-2.243 4.666-3.682 7.85-3.682z"/>
    </g>
</svg>
