<svg xmlns="http://www.w3.org/2000/svg" width="40" height="40" viewBox="0 0 40 40">
    <g fill="none" fill-rule="evenodd">
        <path d="M-4-4h48v48H-4z"/>
        <path fill="#4A90E2" d="M20 8c9.747 0 17.322 6.294 20 15.04a6.623 6.623 0 0 0-4.49-1.746 6.634 6.634 0 0 0-5.17 2.47 6.63 6.63 0 0 0-5.17-2.47 6.634 6.634 0 0 0-5.17 2.47 6.63 6.63 0 0 0-5.17-2.47 6.634 6.634 0 0 0-5.17 2.47 6.63 6.63 0 0 0-5.17-2.47c-1.73 0-3.307.661-4.49 1.745C2.679 14.294 10.254 8 20 8zM11.66.259a1 1 0 0 1 .366 1.366l-1.588 2.75a1 1 0 0 1-1.732-1l1.588-2.75A1 1 0 0 1 11.66.259zM21.66.259a1 1 0 0 1 .366 1.366l-1.588 2.75a1 1 0 0 1-1.732-1l1.588-2.75A1 1 0 0 1 21.66.259zM31.66.259a1 1 0 0 1 .366 1.366l-1.588 2.75a1 1 0 0 1-1.732-1l1.588-2.75A1 1 0 0 1 31.66.259z"/>
        <path fill="#4A90E2" d="M13 35a3 3 0 0 0 6 0V14h2v21a5 5 0 0 1-10 0 1 1 0 0 1 2 0z"/>
    </g>
</svg>
